<?xml version="1.0" encoding="utf-8"?>
<!-- Generator: Adobe Illustrator 22.1.0, SVG Export Plug-In . SVG Version: 6.00 Build 0)  -->
<svg version="1.1" id="Livello_1" xmlns="http://www.w3.org/2000/svg" xmlns:xlink="http://www.w3.org/1999/xlink" x="0px" y="0px"
	 viewBox="0 0 2492 1079.9" style="enable-background:new 0 0 2492 1079.9;" xml:space="preserve">
<g>
	<path class="st0" d="M1749.9,1079.9c-4.9,0-9.8-1.6-13.8-4.4L1377,817.2c-6.1-4.4-9.8-11.5-9.8-19c0-7.5,3.7-14.7,9.8-19.1
		L1709.7,540L1377,300.8c-6.1-4.4-9.8-11.5-9.8-19.1c0-7.5,3.7-14.7,9.8-19.1L1736.2,4.4c8.2-5.9,19.3-5.9,27.5,0l718.5,516.4
		c6.1,4.5,9.8,11.6,9.8,19.1c0,7.5-3.6,14.6-9.7,19l-718.6,516.5C1759.6,1078.3,1754.9,1079.9,1749.9,1079.9z M1431,798.2l319,229.3
		L2428.2,540L1749.9,52.5l-319,229.3l332.7,239.2c6.1,4.4,9.8,11.5,9.8,19.1c0,7.5-3.7,14.6-9.8,19L1431,798.2z"/>
	<path id="Fill-4" d="M109.6,234.7L0,491.7h57.4l23.4-57.2h108.2l23.4,57.2h58.8l-109.6-257H109.6z M134.9,302.1l34,82.8h-68
		L134.9,302.1z"/>
	<polygon id="Fill-5" points="398.7,288.3 398.7,491.7 342.5,491.7 342.5,288.3 264.7,288.3 264.7,236.5 476.6,236.5 476.6,288.3 	
		"/>
	<path id="Fill-6" d="M681.3,323.6c0-24.1-16.8-36.5-44.2-36.5h-55.9v73.3h57c27.4,0,43.1-14.6,43.1-36.1
		C681.3,324.4,681.3,323.6,681.3,323.6z M680.2,491.7l-54.8-81.7h-44.2v81.7h-56.3V236.5h116.9c60.3,0,96.5,31.7,96.5,84.2v0.8
		c0,41.2-22.3,67.1-54.8,79.1l62.5,91.2H680.2z"/>
	<polygon id="Fill-8" points="794.3,491.7 794.3,236.5 987.2,236.5 987.2,286.5 850.3,286.5 850.3,338.2 970.8,338.2 970.8,388.2 
		850.3,388.2 850.3,441.8 989.1,441.8 989.1,491.7 	"/>
	<path id="Fill-10" d="M1135.4,495.4c-38.7,0-77.8-13.5-108.5-40.8l33.2-39.7c23,19,47.2,31,76.4,31c23,0,36.9-9.1,36.9-24.1V421
		c0-14.2-8.8-21.5-51.5-32.4c-51.5-13.1-84.8-27.4-84.8-78v-0.7c0-46.3,37.3-76.9,89.5-76.9c37.3,0,69.1,11.7,95,32.4l-29.2,42.3
		c-22.7-15.7-44.9-25.1-66.5-25.1c-21.6,0-32.9,9.8-32.9,22.2v0.7c0,16.8,11,22.2,55.2,33.5c51.9,13.5,81.1,32.1,81.1,76.6v0.7
		C1229.3,466.9,1190.5,495.4,1135.4,495.4"/>
	<path id="Fill-12" d="M186,745.5c-2.6,10.3-6.9,19.4-12.7,27c-5.9,7.7-13.6,13.8-22.9,18.1c-9.2,4.3-20.5,6.5-33.4,6.5
		c-12.2,0-23.7-2-34-5.8c-10.3-3.9-18.3-7.9-23.8-12.1l-0.8-0.6V632.4l1.5-0.4c4.5-1.2,10.6-2.2,18.1-3.1c7.5-0.9,18.1-1.3,31.4-1.3
		c24.3,0,43.9,7.4,58.6,22.1c14.6,14.6,22,35.7,22,62.8C189.9,724.1,188.6,735.3,186,745.5 M199,626.5c-10.5-10-23.5-17.8-38.4-23.2
		c-15-5.4-32-8.2-50.8-8.2c-20.4,0-38.7,1.4-54.2,4.1c-14.8,2.6-27.5,5.1-37.7,7.3v298.6h40.4v-92.7l3,1.8
		c5.2,3.1,13.3,6.5,24.1,9.9c10.7,3.4,23.3,5.2,37.3,5.2c17.4,0,33.1-2.9,46.6-8.6c13.5-5.7,25-13.8,34.3-24.1
		c9.3-10.3,16.4-22.7,21.3-37c4.8-14.3,7.3-30.2,7.3-47.2c0-18-2.9-34.6-8.7-49C217.8,648.9,209.5,636.5,199,626.5"/>
	<path id="Fill-14" d="M324.8,788.3c-3.1-2.9-5.4-6.7-6.8-11.4c-1.3-4.5-2-10.3-2-17.2V541.9l-40.4,6.4v218c0,21,5.6,36.5,16.5,46.4
		c10.8,9.6,29.4,14.9,55.2,15.7l5.5-30.5c-6.2-0.8-11.5-1.9-15.9-3.1C331.9,793.3,327.8,791.1,324.8,788.3"/>
	<path id="Fill-16" d="M531.9,795l-1.5,0.3c-5.5,1.2-12.4,2-20.6,2.5c-8,0.4-17.4,0.6-27.9,0.6c-17.7,0-32-3-42.4-8.8
		c-10.8-6.1-16.2-16.9-16.2-32.2c0-8.4,2.3-15.2,6.6-20.4c4.3-5,9.7-9,16.2-11.9c6.4-2.8,13.4-4.7,21.1-5.6
		c19-2.2,35.7-1.5,47.7,0.2c7.4,1.1,12.6,2.3,16,3.9l1.2,0.5L531.9,795L531.9,795z M551.2,617.9c-7.2-7.5-16.9-13.4-28.8-17.5
		c-12-4.1-26.9-6.3-44.4-6.3c-15.4,0-29.8,1.1-43,3.3c-12.1,2-21,4-26.7,6.1l4.6,29.9c5.4-1.8,12.9-3.5,22.6-5.3
		c11.1-1.9,24.1-2.9,38.7-2.9c11.7,0,21.3,1.6,28.6,4.8c7.4,3.2,13.3,7.5,17.7,12.8c4.3,5.3,7.3,11.5,8.9,18.3
		c1.6,6.7,2.5,13.5,2.5,20.4v13.8l-2.4-0.5c-1.3-0.3-3.5-0.7-6.6-1.3c-3.2-0.6-6.9-1.2-11.1-2c-4.2-0.7-8.7-1.3-13.4-1.8
		c-4.7-0.4-9.3-0.6-13.7-0.6c-13.8,0-27.1,1.3-39.6,3.9c-12.4,2.6-23.5,6.6-32.8,12c-9.2,5.4-16.6,12.5-22,21.3
		c-5.3,8.7-8.1,19.3-8.1,31.4c0,12.8,2.3,23.9,7,32.9c4.6,9,11.1,16.3,19.4,21.8c8.3,5.6,18.4,9.7,29.8,12.2
		c11.5,2.6,24.4,3.9,38.2,3.9c9.7,0,19.7-0.4,29.6-1.1c9.9-0.7,19.2-1.5,27.8-2.4c8.6-0.9,16.3-1.8,23-2.8
		c5.9-0.9,10.6-1.6,14.3-2.2V679.4c0-12.6-1.6-24.3-4.7-34.8C563.6,634.4,558.4,625.4,551.2,617.9z"/>
	<path id="Fill-18" d="M720.7,786.8l-2-3.8c-7.7-15-15.1-30.6-22-46.6c-7-16.1-13.6-32.4-19.6-48.3c-6-16-11.5-31.8-16.5-47
		c-4.7-14.7-8.9-28.5-12.3-41.2h-43.6c11.3,39.3,25.5,78.6,42.3,116.8c17.2,39.1,36,76.6,55.9,111.4l0.5,0.9l-0.5,0.9
		c-8,16.3-17.2,28.2-27.3,35.6c-10.1,7.4-24.3,11.1-42.1,11.1c-5.5,0-11.2-0.7-16.9-2c-4.6-1.1-8.5-2.2-11.7-3.5l-7.2,29.1
		c1.1,0.4,2.7,0.9,4.7,1.5c2.9,0.9,6.2,1.6,9.8,2.4c3.6,0.7,7.3,1.3,11,1.7c3.7,0.4,7.3,0.6,10.7,0.6c12.8,0,24.4-1.5,34.5-4.3
		c10.1-2.8,19.2-7.3,27.2-13.3c8-6,15.5-13.7,22.2-23c6.7-9.3,13.3-20.6,19.6-33.7c16.1-34.2,31.3-71.6,45.2-111
		c13.6-38.7,26.2-79.4,37.4-121.3h-41.7c-7.8,31.2-16.2,62-24.9,91.6c-8.9,30-19.5,60.8-31.5,91.4L720.7,786.8z"/>
	<path id="Fill-20" d="M1006.8,691.9h-127l0.3-2.2c1-8,3-16,6.1-23.7c3.1-7.8,7.5-14.8,13-20.8c5.5-6,12.4-11,20.4-14.7
		c8-3.7,17.4-5.7,27.7-5.7c18.6,0,33.4,6.2,44.1,18.4c10.6,12.2,15.8,27.9,15.5,46.7L1006.8,691.9z M947.7,594.2
		c-14,0-27.9,2.5-41.3,7.3c-13.3,4.9-25.3,12.2-35.5,21.9s-18.6,22.1-24.8,36.8c-6.2,14.7-9.4,32.2-9.4,52.1c0,17,2.5,32.8,7.3,47
		c4.8,14.1,12.3,26.5,22.2,36.7c9.9,10.3,22.7,18.4,38.1,24.3c15.5,5.9,34,8.9,55.3,8.9c16.9,0,32.2-1.5,45.6-4.4
		c12.2-2.6,21.1-5.2,26.6-7.6l-5.5-30.4c-5.4,2.1-12.8,4.2-22.1,6.4c-10.7,2.5-24.1,3.8-39.8,3.8c-28,0-49-6.4-62.3-18.9
		c-13.3-12.5-21.1-31.1-23-55.2l-0.2-2.1h170c0.2-1.8,0.3-3.7,0.3-5.7v-6.8c0-38.5-8.8-67.5-26.2-86.2
		C1005.7,603.6,980.3,594.2,947.7,594.2z"/>
	<path id="Fill-22" d="M1212.7,597.4c-4.9-0.7-9.8-1.3-14.4-1.7c-4.8-0.4-9.2-0.6-12.9-0.6c-19.2,0-36.7,1.5-52,4.6
		c-14.8,2.9-27.4,6.1-37.5,9.4v215h40.4V632.8l1.5-0.3c2.5-0.6,7.9-1.7,16-3.3c8.2-1.6,16.6-2.4,24.9-2.4c12.7,0,23.4,0.8,31.6,2.4
		c6.7,1.3,11.9,2.5,15.6,3.6l6.8-31.7c-1.8-0.4-4.1-0.9-6.9-1.5C1221.8,598.9,1217.5,598.1,1212.7,597.4"/>
</g>
</svg>
