<?xml version="1.0" standalone="no"?>
<!DOCTYPE svg PUBLIC "-//W3C//DTD SVG 20010904//EN"
 "http://www.w3.org/TR/2001/REC-SVG-20010904/DTD/svg10.dtd">
<svg version="1.0" xmlns="http://www.w3.org/2000/svg"
 width="356.000000pt" height="200.000000pt" viewBox="0 0 356.000000 200.000000"
 preserveAspectRatio="xMidYMid meet">

<g transform="translate(0.000000,200.000000) scale(0.100000,-0.100000)"
fill="#000000" stroke="none">
<path d="M0 1000 l0 -640 121 0 121 0 -4 340 c-4 394 -16 400 113 -47 l84
-293 113 0 112 0 0 640 0 640 -121 0 -121 0 3 -350 c3 -192 2 -342 -2 -332 -3
9 -48 167 -100 349 l-94 333 -112 0 -113 0 0 -640z"/>
<path d="M750 1000 l0 -640 240 0 240 0 0 115 0 115 -115 0 -115 0 0 525 0
525 -125 0 -125 0 0 -640z"/>
<path d="M1330 1525 l0 -115 150 0 c83 0 150 -3 150 -6 0 -4 -72 -201 -160
-438 l-160 -432 0 -87 0 -87 300 0 300 0 0 115 0 115 -165 0 c-91 0 -165 2
-165 5 0 2 74 198 165 436 l165 431 0 89 0 89 -290 0 -290 0 0 -115z"/>
<path d="M2010 1533 l1 -108 67 -47 c37 -25 93 -65 125 -88 l57 -41 0 195 0
196 -125 0 -125 0 0 -107z"/>
<path d="M2350 1412 l0 -228 90 -62 c95 -66 125 -99 114 -125 -3 -9 -51 -48
-105 -87 l-99 -71 0 -239 0 -240 245 0 245 0 0 115 0 114 -122 3 -123 3 0 155
0 155 108 3 107 3 0 109 0 110 -105 0 -105 0 0 140 0 140 120 0 120 0 0 115 0
115 -245 0 -245 0 0 -228z"/>
<path d="M2930 1525 l0 -115 95 0 95 0 0 -525 0 -525 125 0 125 0 0 525 0 525
95 0 95 0 0 115 0 115 -315 0 -315 0 0 -115z"/>
<path d="M2019 1193 c-10 -12 -15 -57 -17 -167 -4 -239 12 -250 188 -126 63
44 118 89 122 99 10 29 -11 50 -130 134 -114 79 -140 89 -163 60z"/>
<path d="M2132 684 l-122 -86 0 -119 0 -119 125 0 125 0 0 205 c0 113 -1 205
-3 205 -1 0 -58 -39 -125 -86z"/>
</g>
</svg>
